<svg width="7" height="7" viewBox="0 0 7 7" fill="none" xmlns="http://www.w3.org/2000/svg">
    <g clip-path="url(#clip0)">
        <path d="M3.60775 6.65125L6.95556 3.30343C6.98409 3.27484 7.00007 3.23607 7 3.19569L7 0.456558C7.00016 0.372515 6.93213 0.304265 6.84809 0.304108C6.80758 0.304037 6.7687 0.320129 6.74008 0.348818L3.49999 3.58921L0.259916 0.348818C0.200569 0.289313 0.104214 0.289199 0.0447097 0.348547C0.0160198 0.377165 -7.24841e-05 0.416041 -9.60338e-07 0.456557L-1.08007e-06 3.19569C-7.26074e-05 3.23607 0.0159057 3.27484 0.0444382 3.30342L3.39227 6.65125C3.45162 6.71076 3.54797 6.71087 3.60747 6.65152C3.60756 6.65142 3.60765 6.65134 3.60775 6.65125Z"
              fill="#231F20"/>
    </g>
    <defs>
        <clipPath id="clip0">
            <rect width="7" height="7" fill="white" transform="translate(7) rotate(90)"/>
        </clipPath>
    </defs>
</svg>
